<svg xmlns="http://www.w3.org/2000/svg" width="1100" height="930" viewBox="0 0 1100 930">
<rect width="100%" height="100%" fill="white"/>
<text x="35" y="48" font-family="DejaVu Sans" font-size="26" fill="#182b49">Customer lookup - Step Functions Parallel State Example</text>
<rect x="130" y="105" width="840" height="725" fill="#f8f1fa" stroke="#8b9db4" stroke-width="2"/>
<text x="140" y="128" font-family="DejaVu Sans" font-size="17" fill="#182b49">AWS Step Functions state machine: LookupCustomerInfo</text>
<rect x="400" y="155" width="300" height="80" fill="#fff4d9" stroke="#3e5877" stroke-width="2"/>
<text x="412" y="187" font-family="DejaVu Sans" font-size="20" fill="#182b49">Start execution</text>
<rect x="380" y="320" width="340" height="85" fill="#f4e7f3" stroke="#3e5877" stroke-width="2"/>
<text x="392" y="350" font-family="DejaVu Sans" font-size="18" fill="#182b49">Parallel: LookupCustomerInfo</text>
<rect x="190" y="515" width="290" height="100" fill="#fff0dd" stroke="#3e5877" stroke-width="2"/>
<text x="202" y="547" font-family="DejaVu Sans" font-size="20" fill="#182b49">AWS Lambda</text>
<text x="202" y="573" font-family="DejaVu Sans" font-size="20" fill="#182b49">AddressFinder</text>
<rect x="620" y="515" width="290" height="100" fill="#fff0dd" stroke="#3e5877" stroke-width="2"/>
<text x="632" y="547" font-family="DejaVu Sans" font-size="20" fill="#182b49">AWS Lambda</text>
<text x="632" y="573" font-family="DejaVu Sans" font-size="20" fill="#182b49">PhoneFinder</text>
<rect x="400" y="725" width="300" height="80" fill="#e6f3e8" stroke="#3e5877" stroke-width="2"/>
<text x="412" y="757" font-family="DejaVu Sans" font-size="20" fill="#182b49">End / result array</text>
<polyline points="550,235 550,320" fill="none" stroke="#526581" stroke-width="3"/>
<polygon points="550.00,320.00 544.35,308.29 555.65,308.29" fill="#526581"/>
<polyline points="440,405 440,455 335,455 335,515" fill="none" stroke="#526581" stroke-width="3"/>
<polygon points="335.00,515.00 329.35,503.29 340.65,503.29" fill="#526581"/>
<polyline points="660,405 660,455 765,455 765,515" fill="none" stroke="#526581" stroke-width="3"/>
<polygon points="765.00,515.00 759.35,503.29 770.65,503.29" fill="#526581"/>
<polyline points="335,615 335,685 465,685 465,725" fill="none" stroke="#526581" stroke-width="3"/>
<polygon points="465.00,725.00 459.35,713.29 470.65,713.29" fill="#526581"/>
<polyline points="765,615 765,685 635,685 635,725" fill="none" stroke="#526581" stroke-width="3"/>
<polygon points="635.00,725.00 629.35,713.29 640.65,713.29" fill="#526581"/>
<text x="185" y="868" font-family="DejaVu Sans" font-size="18" fill="#182b49">Both branches receive the same input. End waits for both; branches are not serial.</text>
<text x="35" y="906" font-family="DejaVu Sans" font-size="14" fill="#677489">Repository-owned PT-1 input | no third-party artwork or icons</text>
</svg>
